<?xml version="1.0" encoding="UTF-8"?>
<svg xmlns="http://www.w3.org/2000/svg" xmlns:xlink="http://www.w3.org/1999/xlink" width="275pt" height="374.999991pt" viewBox="0 0 375 374.999991" version="1.2">
<defs>
<clipPath id="clip1">
  <path d="M 10.0625 27.808594 L 364.695312 27.808594 L 364.695312 347.308594 L 10.0625 347.308594 Z M 10.0625 27.808594 "/>
</clipPath>
</defs>
<g id="surface1">
<rect x="0" y="0" width="375" height="374.999991" style="fill:rgb(100%,100%,100%);fill-opacity:1;stroke:none;"/>
<rect x="0" y="0" width="375" height="374.999991" style="fill:rgb(100%,100%,100%);fill-opacity:1;stroke:none;"/>
<rect x="0" y="0" width="375" height="374.999991" style="fill:rgb(100%,100%,100%);fill-opacity:1;stroke:none;"/>
<path style=" stroke:none;fill-rule:nonzero;fill:rgb(97.648621%,68.238831%,10.978699%);fill-opacity:1;" d="M 15.972656 322.753906 C 15.972656 319.539062 16.804688 316.351562 18.398438 313.527344 L 171.125 43.53125 C 174.542969 37.472656 180.960938 33.726562 187.910156 33.726562 C 194.882812 33.726562 201.324219 37.496094 204.742188 43.578125 L 356.386719 313.550781 C 357.953125 316.351562 358.785156 319.515625 358.785156 322.753906 C 358.785156 333.113281 350.40625 341.503906 340.0625 341.503906 L 34.675781 341.503906 C 24.355469 341.503906 15.972656 333.113281 15.972656 322.753906 "/>
<path style=" stroke:none;fill-rule:nonzero;fill:rgb(96.859741%,59.21936%,12.939453%);fill-opacity:1;" d="M 356.386719 313.550781 L 260.363281 142.625 C 220.164062 249.117188 146.699219 308.972656 87.777344 341.503906 L 340.0625 341.503906 C 350.40625 341.503906 358.785156 333.113281 358.785156 322.753906 C 358.785156 319.515625 357.953125 316.351562 356.386719 313.550781 "/>
<path style=" stroke:none;fill-rule:nonzero;fill:rgb(87.838745%,21.958923%,20.779419%);fill-opacity:1;" d="M 146.007812 252.722656 L 134.183594 252.722656 L 134.183594 270.480469 L 123.820312 270.480469 L 134.046875 224.421875 L 122.503906 221.832031 L 110.679688 275.101562 C 110.289062 276.859375 110.726562 278.710938 111.835938 280.097656 C 112.96875 281.507812 114.652344 282.316406 116.453125 282.316406 L 134.183594 282.316406 L 134.183594 294.152344 L 146.007812 294.152344 L 146.007812 282.316406 L 151.917969 282.316406 L 151.917969 270.480469 L 146.007812 270.480469 L 146.007812 252.722656 "/>
<path style=" stroke:none;fill-rule:nonzero;fill:rgb(87.838745%,21.958923%,20.779419%);fill-opacity:1;" d="M 199.199219 270.480469 C 199.199219 277 193.890625 282.316406 187.378906 282.316406 C 180.871094 282.316406 175.558594 277 175.558594 270.480469 L 175.558594 246.804688 C 175.558594 240.285156 180.871094 234.964844 187.378906 234.964844 C 193.890625 234.964844 199.199219 240.285156 199.199219 246.804688 Z M 187.378906 223.128906 C 174.335938 223.128906 163.738281 233.742188 163.738281 246.804688 L 163.738281 270.480469 C 163.738281 283.542969 174.335938 294.152344 187.378906 294.152344 C 200.425781 294.152344 211.023438 283.542969 211.023438 270.480469 L 211.023438 246.804688 C 211.023438 233.742188 200.425781 223.128906 187.378906 223.128906 "/>
<path style=" stroke:none;fill-rule:nonzero;fill:rgb(87.838745%,21.958923%,20.779419%);fill-opacity:1;" d="M 264.21875 270.480469 L 258.304688 270.480469 L 258.304688 252.722656 L 246.484375 252.722656 L 246.484375 270.480469 L 236.117188 270.480469 L 246.347656 224.421875 L 234.804688 221.832031 L 222.980469 275.101562 C 222.589844 276.859375 223.027344 278.710938 224.136719 280.097656 C 225.269531 281.507812 226.953125 282.316406 228.753906 282.316406 L 246.484375 282.316406 L 246.484375 294.152344 L 258.304688 294.152344 L 258.304688 282.316406 L 264.21875 282.316406 L 264.21875 270.480469 "/>
<path style=" stroke:none;fill-rule:nonzero;fill:rgb(87.838745%,21.958923%,20.779419%);fill-opacity:1;" d="M 181.46875 110.671875 L 181.46875 169.859375 L 193.289062 169.859375 L 193.289062 110.671875 L 181.46875 110.671875 "/>
<path style=" stroke:none;fill-rule:nonzero;fill:rgb(87.838745%,21.958923%,20.779419%);fill-opacity:1;" d="M 181.46875 193.535156 L 193.289062 193.535156 L 193.289062 181.695312 L 181.46875 181.695312 L 181.46875 193.535156 "/>
<g clip-path="url(#clip1)" clip-rule="nonzero">
<path style=" stroke:none;fill-rule:nonzero;fill:rgb(6.269836%,5.879211%,5.099487%);fill-opacity:1;" d="M 340.0625 335.585938 L 34.675781 335.585938 C 27.632812 335.585938 21.882812 329.828125 21.882812 322.753906 C 21.882812 320.558594 22.460938 318.382812 23.546875 316.464844 L 176.273438 46.445312 C 178.628906 42.257812 183.109375 39.644531 187.910156 39.644531 C 192.738281 39.644531 197.214844 42.257812 199.59375 46.488281 L 351.234375 316.441406 C 352.296875 318.359375 352.875 320.535156 352.875 322.753906 C 352.875 329.828125 347.125 335.585938 340.0625 335.585938 Z M 209.890625 40.664062 C 205.433594 32.734375 197.007812 27.808594 187.910156 27.808594 C 178.859375 27.808594 170.457031 32.710938 165.976562 40.617188 L 13.273438 310.617188 C 11.171875 314.316406 10.0625 318.523438 10.0625 322.753906 C 10.0625 336.371094 21.101562 347.421875 34.675781 347.421875 L 340.0625 347.421875 C 353.636719 347.421875 364.695312 336.347656 364.695312 322.753906 C 364.695312 318.5 363.613281 314.339844 361.535156 310.640625 L 209.890625 40.664062 "/>
</g>
<path style=" stroke:none;fill-rule:nonzero;fill:rgb(6.269836%,5.879211%,5.099487%);fill-opacity:1;" d="M 146.007812 252.722656 L 134.183594 252.722656 L 134.183594 270.480469 L 123.820312 270.480469 L 134.046875 224.421875 L 122.503906 221.832031 L 110.679688 275.101562 C 110.289062 276.859375 110.726562 278.710938 111.835938 280.097656 C 112.96875 281.507812 114.652344 282.316406 116.453125 282.316406 L 134.183594 282.316406 L 134.183594 294.152344 L 146.007812 294.152344 L 146.007812 282.316406 L 151.917969 282.316406 L 151.917969 270.480469 L 146.007812 270.480469 L 146.007812 252.722656 "/>
<path style=" stroke:none;fill-rule:nonzero;fill:rgb(6.269836%,5.879211%,5.099487%);fill-opacity:1;" d="M 199.199219 270.480469 C 199.199219 277 193.890625 282.316406 187.378906 282.316406 C 180.871094 282.316406 175.558594 277 175.558594 270.480469 L 175.558594 246.804688 C 175.558594 240.285156 180.871094 234.964844 187.378906 234.964844 C 193.890625 234.964844 199.199219 240.285156 199.199219 246.804688 Z M 187.378906 223.128906 C 174.335938 223.128906 163.738281 233.742188 163.738281 246.804688 L 163.738281 270.480469 C 163.738281 283.542969 174.335938 294.152344 187.378906 294.152344 C 200.425781 294.152344 211.023438 283.542969 211.023438 270.480469 L 211.023438 246.804688 C 211.023438 233.742188 200.425781 223.128906 187.378906 223.128906 "/>
<path style=" stroke:none;fill-rule:nonzero;fill:rgb(6.269836%,5.879211%,5.099487%);fill-opacity:1;" d="M 258.304688 252.722656 L 246.484375 252.722656 L 246.484375 270.480469 L 236.117188 270.480469 L 246.347656 224.421875 L 234.804688 221.832031 L 222.980469 275.101562 C 222.589844 276.859375 223.027344 278.710938 224.136719 280.097656 C 225.269531 281.507812 226.953125 282.316406 228.753906 282.316406 L 246.484375 282.316406 L 246.484375 294.152344 L 258.304688 294.152344 L 258.304688 282.316406 L 264.21875 282.316406 L 264.21875 270.480469 L 258.304688 270.480469 L 258.304688 252.722656 "/>
<path style=" stroke:none;fill-rule:nonzero;fill:rgb(6.269836%,5.879211%,5.099487%);fill-opacity:1;" d="M 193.289062 110.671875 L 181.46875 110.671875 L 181.46875 169.859375 L 193.289062 169.859375 L 193.289062 110.671875 "/>
<path style=" stroke:none;fill-rule:nonzero;fill:rgb(6.269836%,5.879211%,5.099487%);fill-opacity:1;" d="M 193.289062 181.695312 L 181.46875 181.695312 L 181.46875 193.535156 L 193.289062 193.535156 L 193.289062 181.695312 "/>
</g>
</svg>
